<?xml version="1.0" encoding="utf-8"?>
<!-- Generator: Adobe Illustrator 19.1.0, SVG Export Plug-In . SVG Version: 6.00 Build 0)  -->
<!DOCTYPE svg PUBLIC "-//W3C//DTD SVG 1.1//EN" "http://www.w3.org/Graphics/SVG/1.1/DTD/svg11.dtd">
<svg version="1.1" id="Layer_1" xmlns="http://www.w3.org/2000/svg" xmlns:xlink="http://www.w3.org/1999/xlink" x="0px" y="0px"
	 width="16px" height="15px" viewBox="-387 299 16 15" style="enable-background:new -387 299 16 15;" xml:space="preserve">
<style type="text/css">
	.st0{fill:#FFFFFF;}
</style>
<g>
	<path class="st0" d="M-372.2,305h-13.5c-0.7,0-1.2,0.6-1.2,1.2v0.5c0,0.7,0.6,1.2,1.2,1.2h13.5c0.7,0,1.2-0.6,1.2-1.2v-0.5
		C-371,305.6-371.6,305-372.2,305z M-372.2,299h-13.5c-0.7,0-1.2,0.6-1.2,1.2v0.5c0,0.7,0.6,1.2,1.2,1.2h13.5c0.7,0,1.2-0.6,1.2-1.2
		v-0.5C-371,299.6-371.6,299-372.2,299z M-372.2,311h-13.5c-0.7,0-1.2,0.6-1.2,1.2v0.5c0,0.7,0.6,1.2,1.2,1.2h13.5
		c0.7,0,1.2-0.6,1.2-1.2v-0.5C-371,311.6-371.6,311-372.2,311z"/>
</g>
</svg>
